<mxfile host="65bd71144e" pages="2">
    <diagram name="Sequence" id="JgcEw9M8dI1Xy2gp9OZx">
        <mxGraphModel dx="1058" dy="788" grid="1" gridSize="10" guides="1" tooltips="1" connect="1" arrows="1" fold="1" page="1" pageScale="1" pageWidth="850" pageHeight="1100" math="0" shadow="0">
            <root>
                <mxCell id="UR0DFZb04nUeP79YXbAC-0"/>
                <mxCell id="UR0DFZb04nUeP79YXbAC-1" parent="UR0DFZb04nUeP79YXbAC-0"/>
                <mxCell id="jlnA7Bbo42E9i6tjMMHw-1" value="Charlie" style="shape=umlLifeline;perimeter=lifelinePerimeter;whiteSpace=wrap;html=1;container=1;collapsible=0;recursiveResize=0;outlineConnect=0;" parent="UR0DFZb04nUeP79YXbAC-1" vertex="1">
                    <mxGeometry x="180" y="280" width="100" height="250" as="geometry"/>
                </mxCell>
                <mxCell id="UR0DFZb04nUeP79YXbAC-6" value="AES(message, temp_key)" style="html=1;verticalAlign=bottom;startArrow=circle;startFill=1;endArrow=open;startSize=6;endSize=8;" parent="jlnA7Bbo42E9i6tjMMHw-1" target="jlnA7Bbo42E9i6tjMMHw-2" edge="1">
                    <mxGeometry x="0.0319" width="80" relative="1" as="geometry">
                        <mxPoint x="-120" y="80" as="sourcePoint"/>
                        <mxPoint x="50" y="80" as="targetPoint"/>
                        <mxPoint as="offset"/>
                    </mxGeometry>
                </mxCell>
                <mxCell id="jlnA7Bbo42E9i6tjMMHw-6" value="RSA(temp_key, server_key)" style="html=1;verticalAlign=bottom;endArrow=block;" parent="jlnA7Bbo42E9i6tjMMHw-1" target="jlnA7Bbo42E9i6tjMMHw-2" edge="1">
                    <mxGeometry x="0.0016" width="80" relative="1" as="geometry">
                        <mxPoint x="-110" y="120" as="sourcePoint"/>
                        <mxPoint x="460" y="120" as="targetPoint"/>
                        <mxPoint as="offset"/>
                    </mxGeometry>
                </mxCell>
                <mxCell id="jlnA7Bbo42E9i6tjMMHw-2" value="Server" style="shape=umlLifeline;perimeter=lifelinePerimeter;whiteSpace=wrap;html=1;container=1;collapsible=0;recursiveResize=0;outlineConnect=0;lifelineDashed=0;" parent="UR0DFZb04nUeP79YXbAC-1" vertex="1">
                    <mxGeometry x="340" y="280" width="100" height="250" as="geometry"/>
                </mxCell>
                <mxCell id="jlnA7Bbo42E9i6tjMMHw-8" value="&lt;span style=&quot;color: rgb(240, 240, 240); font-family: Helvetica; font-size: 11px; font-style: normal; font-variant-ligatures: normal; font-variant-caps: normal; font-weight: 400; letter-spacing: normal; orphans: 2; text-align: center; text-indent: 0px; text-transform: none; widows: 2; word-spacing: 0px; -webkit-text-stroke-width: 0px; background-color: rgb(24, 20, 29); text-decoration-thickness: initial; text-decoration-style: initial; text-decoration-color: initial; float: none; display: inline !important;&quot;&gt;temp_key&lt;/span&gt;" style="text;whiteSpace=wrap;html=1;" parent="jlnA7Bbo42E9i6tjMMHw-2" vertex="1">
                    <mxGeometry x="20" y="93" width="60" height="30" as="geometry"/>
                </mxCell>
                <mxCell id="0" value="&lt;span style=&quot;color: rgb(240, 240, 240); font-family: Helvetica; font-size: 11px; font-style: normal; font-variant-ligatures: normal; font-variant-caps: normal; font-weight: 400; letter-spacing: normal; orphans: 2; text-align: center; text-indent: 0px; text-transform: none; widows: 2; word-spacing: 0px; -webkit-text-stroke-width: 0px; background-color: rgb(24, 20, 29); text-decoration-thickness: initial; text-decoration-style: initial; text-decoration-color: initial; float: none; display: inline !important;&quot;&gt;response&lt;/span&gt;" style="text;whiteSpace=wrap;html=1;" vertex="1" parent="jlnA7Bbo42E9i6tjMMHw-2">
                    <mxGeometry x="25" y="137" width="50" height="30" as="geometry"/>
                </mxCell>
                <mxCell id="jlnA7Bbo42E9i6tjMMHw-12" value="" style="html=1;verticalAlign=bottom;endArrow=block;" parent="jlnA7Bbo42E9i6tjMMHw-2" target="jlnA7Bbo42E9i6tjMMHw-5" edge="1">
                    <mxGeometry x="-0.6244" width="80" relative="1" as="geometry">
                        <mxPoint x="-270" y="200" as="sourcePoint"/>
                        <mxPoint x="210" y="310" as="targetPoint"/>
                        <mxPoint as="offset"/>
                    </mxGeometry>
                </mxCell>
                <mxCell id="jlnA7Bbo42E9i6tjMMHw-3" value="Charlie" style="shape=umlLifeline;perimeter=lifelinePerimeter;whiteSpace=wrap;html=1;container=1;collapsible=0;recursiveResize=0;outlineConnect=0;" parent="UR0DFZb04nUeP79YXbAC-1" vertex="1">
                    <mxGeometry x="500" y="280" width="100" height="250" as="geometry"/>
                </mxCell>
                <mxCell id="jlnA7Bbo42E9i6tjMMHw-4" value="Alice" style="shape=umlLifeline;perimeter=lifelinePerimeter;whiteSpace=wrap;html=1;container=1;collapsible=0;recursiveResize=0;outlineConnect=0;lifelineDashed=0;" parent="UR0DFZb04nUeP79YXbAC-1" vertex="1">
                    <mxGeometry x="20" y="280" width="100" height="250" as="geometry"/>
                </mxCell>
                <mxCell id="jlnA7Bbo42E9i6tjMMHw-5" value="Bob" style="shape=umlLifeline;perimeter=lifelinePerimeter;whiteSpace=wrap;html=1;container=1;collapsible=0;recursiveResize=0;outlineConnect=0;lifelineDashed=0;" parent="UR0DFZb04nUeP79YXbAC-1" vertex="1">
                    <mxGeometry x="660" y="280" width="100" height="250" as="geometry"/>
                </mxCell>
                <mxCell id="UR0DFZb04nUeP79YXbAC-7" value="AES(response, key_temp)" style="html=1;verticalAlign=bottom;endArrow=block;" parent="jlnA7Bbo42E9i6tjMMHw-5" target="jlnA7Bbo42E9i6tjMMHw-4" edge="1">
                    <mxGeometry x="-0.0013" width="80" relative="1" as="geometry">
                        <mxPoint x="-270" y="160" as="sourcePoint"/>
                        <mxPoint x="-510" y="340" as="targetPoint"/>
                        <mxPoint as="offset"/>
                    </mxGeometry>
                </mxCell>
            </root>
        </mxGraphModel>
    </diagram>
</mxfile>